<svg id="Layer_1" data-name="Layer 1" xmlns="http://www.w3.org/2000/svg" viewBox="0 0 297.05 431.6">
  <defs>
    <style>
      .cls-1 {
        fill: #1e8b92;
      }
    </style>
  </defs>
  <path id="galaxy" class="cls-1" d="M549.23,499.89c10.88,21.85,33.4,102,60.91,78.77,4.54-91.23-128.76-185.85-78.45-38.54,23.34,46.53,59.25,92.81,101,102.08,90.7,10.68-137.75-427.3-187.37-293.07C394.41,506,614.7,722.35,676.6,742.42c107.67-8.3.21-233.11-21.46-275.86C634.07,421,602.5,385.68,577.08,343.17,643.74,395.53,804.65,718,688.94,749.26c-39.57,11.66-128.16-92.32-136.57-102.19C479.21,564.78,405.9,448.39,442.19,342.74c65.56-128.08,279,294,202,308.15-59.79.94-109.61-86.17-122.42-119.94-14-46.28-6.72-99.69,44.32-62.31,22.78,16.66,88.15,134.25,27.69,121.16C574,585,535.06,500.77,549.23,499.89Z" transform="translate(-432.61 -318.57)"/>
</svg>
