<svg id="Layer_1" data-name="Layer 1" xmlns="http://www.w3.org/2000/svg" viewBox="0 0 415.13 508.79">
  <defs>
    <style>
      .cls-1 {
        fill: #f3a42e;
      }
    </style>
  </defs>
  <path id="galaxy" class="cls-1" d="M884.76,617.63C865.19,458,730.1,321.14,564.91,238l.08-.07c-142.34-62.61-87.75,54.1-62.4,113.71,29.34,59.63,51.55,118.39,89.75,175.07C624,581.4,672.44,625,715.94,674.4c23.92,22,38.72,58.66,74.5,54-10.25-12.07-31.33-10.67-39.74-27.7-51.65-62.25-114-114.19-154.33-182.42C519.53,381.42,392.3,155.77,570.3,249c-.37.22-.74.44-1.13.7,122.16,57,225.6,146.81,272.5,256.72,0,0-.08.06,0,0h0l-.1,0h.11c.53.49-.71.42,1.34,2.64,80.36,172,19,212.65-121.41,72-69.83-69.76-159-221-149.32-233.33C591.15,322.08,669.69,383,681,390.64,815.54,489.06,779.55,585.15,720.55,509c-30.87-40.74-68.17-69.5-60.16-84,28.16-.68,56.19,35.7,68.66,47.91,4.92,6.41-8.06,13.84-.15,19.91,17.75,8.21,19.6-17.75,5.55-25.27C711.79,450.4,697.56,429,669,417.64c-61.07-17.63,24.84,70.92,31.5,79.6,16.39,17.92,55.42,73.28,77.16,39,41.8-69.7-195-248.3-214.3-192.41,9.1,77.85,129.76,217.62,149.27,239.91C776.93,655.59,899.63,731.43,884.76,617.63Z" transform="translate(-470.87 -220)"/>
</svg>
